<svg xmlns="http://www.w3.org/2000/svg" width="24" height="24" fill="none" viewBox="0 0 24 24">
  <path fill="#3D3D3D" fill-rule="evenodd" d="M21 4s-5.485-1.5-9-1.5C8.485 2.5 3 4 3 4v9s1.743 3.743 3.5 5.5C8.257 20.257 12 22 12 22s3.743-1.743 5.5-3.5C19.257 16.743 21 13 21 13V4Zm-2 8.54V5.56c-.459-.108-1-.23-1.588-.352-1.79-.37-3.871-.708-5.412-.708-1.54 0-3.623.338-5.412.708-.589.122-1.13.244-1.588.352v6.98l.085.171c.18.357.438.85.746 1.393.643 1.135 1.408 2.307 2.083 2.982.675.675 1.847 1.44 2.982 2.083l.104.06V17h2v2.228l.104-.059c1.135-.643 2.307-1.408 2.982-2.083.675-.675 1.44-1.847 2.083-2.982A32.93 32.93 0 0 0 19 12.541ZM8 15h3l1-1 1 1h3l1-1v-2l-1 1h-3l-1-1-1 1H8l-1-1v2l1 1Zm3-7v2H7V8h4Zm6 0v2h-4V8h4Z" clip-rule="evenodd"/>
</svg>
